<?xml version="1.0" encoding="UTF-8"?>
 <!DOCTYPE svg PUBLIC "-//W3C//DTD SVG 1.1//EN"
   "http://www.w3.org/Graphics/SVG/1.1/DTD/svg11.dtd">
 <svg xmlns="http://www.w3.org/2000/svg" version="1.1"
   xmlns:xlink="http://www.w3.org/1999/xlink" width="48" height="48">
  <defs>
    <linearGradient id="linearGradient4750">
      <stop id="stop4752" style="stop-color:#ffffff" offset="0" />
      <stop id="stop4758" style="stop-color:#fefefe" offset="0.37931034" />
      <stop id="stop4754" style="stop-color:#1d1d1d" offset="1" />
    </linearGradient>
    <linearGradient id="linearGradient4350">
      <stop id="stop4352" style="stop-color:#ffffff" offset="0" />
      <stop id="stop4354" style="stop-color:#ffffff;stop-opacity:0" offset="1" />
    </linearGradient>
    <linearGradient id="linearGradient4126">
      <stop id="stop4128" style="stop-color:#ffffff" offset="0" />
      <stop id="stop4130" style="stop-color:#ffffff;stop-opacity:0.164948" offset="1" />
    </linearGradient>
    <linearGradient id="linearGradient4114">
      <stop id="stop4116" offset="0" />
      <stop id="stop4118" style="stop-opacity:0" offset="1" />
    </linearGradient>
    <linearGradient id="linearGradient3962">
      <stop id="stop3964" style="stop-color:#d3e9ff;stop-opacity:1" offset="0" />
      <stop id="stop4134" style="stop-color:#d3e9ff;stop-opacity:1" offset="0.15517241" />
      <stop id="stop4346" style="stop-color:#4074ae;stop-opacity:1" offset="0.75" />
      <stop id="stop3966" style="stop-color:#36486c;stop-opacity:1" offset="1" />
    </linearGradient>
    <radialGradient cx="15.115514" cy="63.965389" r="12.289036" fx="15.115514" fy="63.965389" id="radialGradient4120" xlink:href="#linearGradient4114" gradientUnits="userSpaceOnUse" gradientTransform="scale(1.64399,0.608276)" />
    <radialGradient cx="11.826907" cy="10.476453" r="32.664848" fx="11.826907" fy="10.476453" id="radialGradient4356" xlink:href="#linearGradient4350" gradientUnits="userSpaceOnUse" gradientTransform="scale(1.17954,0.847791)" />
    <radialGradient cx="18.63378" cy="17.486208" r="40.692665" fx="18.934305" fy="17.810213" id="radialGradient1460" xlink:href="#linearGradient4750" gradientUnits="userSpaceOnUse" gradientTransform="scale(1.03682,0.964486)" />
    <radialGradient cx="18.63378" cy="17.486208" r="40.692665" fx="18.934305" fy="17.810213" id="radialGradient1462" xlink:href="#linearGradient4750" gradientUnits="userSpaceOnUse" gradientTransform="scale(1.03682,0.964486)" />
    <radialGradient cx="18.63378" cy="17.486208" r="40.692665" fx="18.934305" fy="17.810213" id="radialGradient1466" xlink:href="#linearGradient4750" gradientUnits="userSpaceOnUse" gradientTransform="scale(1.03682,0.964486)" />
    <radialGradient cx="18.63378" cy="17.486208" r="40.692665" fx="18.934305" fy="17.810213" id="radialGradient1470" xlink:href="#linearGradient4750" gradientUnits="userSpaceOnUse" gradientTransform="scale(1.03682,0.964486)" />
    <radialGradient cx="18.63378" cy="17.486208" r="40.692665" fx="18.934305" fy="17.810213" id="radialGradient1474" xlink:href="#linearGradient4750" gradientUnits="userSpaceOnUse" gradientTransform="scale(1.03682,0.964486)" />
    <radialGradient cx="18.63378" cy="17.486208" r="40.692665" fx="18.934305" fy="17.810213" id="radialGradient1478" xlink:href="#linearGradient4750" gradientUnits="userSpaceOnUse" gradientTransform="scale(1.03682,0.964486)" />
    <radialGradient cx="18.63378" cy="17.486208" r="40.692665" fx="18.934305" fy="17.810213" id="radialGradient1482" xlink:href="#linearGradient4750" gradientUnits="userSpaceOnUse" gradientTransform="scale(1.03682,0.964486)" />
    <radialGradient cx="18.63378" cy="17.486208" r="40.692665" fx="18.934305" fy="17.810213" id="radialGradient1486" xlink:href="#linearGradient4750" gradientUnits="userSpaceOnUse" gradientTransform="scale(1.03682,0.964486)" />
    <radialGradient cx="18.63378" cy="17.486208" r="40.692665" fx="18.934305" fy="17.810213" id="radialGradient1490" xlink:href="#linearGradient4750" gradientUnits="userSpaceOnUse" gradientTransform="scale(1.03682,0.964486)" />
    <radialGradient cx="18.63378" cy="17.486208" r="40.692665" fx="18.934305" fy="17.810213" id="radialGradient1494" xlink:href="#linearGradient4750" gradientUnits="userSpaceOnUse" gradientTransform="scale(1.03682,0.964486)" />
    <radialGradient cx="18.63378" cy="17.486208" r="40.692665" fx="18.934305" fy="17.810213" id="radialGradient1498" xlink:href="#linearGradient4750" gradientUnits="userSpaceOnUse" gradientTransform="scale(1.03682,0.964486)" />
    <radialGradient cx="18.63378" cy="17.486208" r="40.692665" fx="18.934305" fy="17.810213" id="radialGradient1502" xlink:href="#linearGradient4750" gradientUnits="userSpaceOnUse" gradientTransform="scale(1.03682,0.964486)" />
    <radialGradient cx="18.63378" cy="17.486208" r="40.692665" fx="18.934305" fy="17.810213" id="radialGradient1506" xlink:href="#linearGradient4750" gradientUnits="userSpaceOnUse" gradientTransform="scale(1.03682,0.964486)" />
    <radialGradient cx="18.63378" cy="17.486208" r="40.692665" fx="18.934305" fy="17.810213" id="radialGradient1510" xlink:href="#linearGradient4750" gradientUnits="userSpaceOnUse" gradientTransform="scale(1.03682,0.964486)" />
    <radialGradient cx="18.63378" cy="17.486208" r="40.692665" fx="18.934305" fy="17.810213" id="radialGradient1514" xlink:href="#linearGradient4750" gradientUnits="userSpaceOnUse" gradientTransform="scale(1.03682,0.964486)" />
    <radialGradient cx="18.63378" cy="17.486208" r="40.692665" fx="18.934305" fy="17.810213" id="radialGradient1518" xlink:href="#linearGradient4750" gradientUnits="userSpaceOnUse" gradientTransform="scale(1.03682,0.964486)" />
    <radialGradient cx="18.63378" cy="17.486208" r="40.692665" fx="18.934305" fy="17.810213" id="radialGradient1522" xlink:href="#linearGradient4750" gradientUnits="userSpaceOnUse" gradientTransform="scale(1.03682,0.964486)" />
    <radialGradient cx="18.63378" cy="17.486208" r="40.692665" fx="18.934305" fy="17.810213" id="radialGradient1526" xlink:href="#linearGradient4750" gradientUnits="userSpaceOnUse" gradientTransform="scale(1.03682,0.964486)" />
    <radialGradient cx="18.63378" cy="17.486208" r="40.692665" fx="18.934305" fy="17.810213" id="radialGradient1528" xlink:href="#linearGradient4750" gradientUnits="userSpaceOnUse" gradientTransform="scale(1.03682,0.964486)" />
    <radialGradient cx="18.63378" cy="17.486208" r="40.692665" fx="18.934305" fy="17.810213" id="radialGradient1532" xlink:href="#linearGradient4750" gradientUnits="userSpaceOnUse" gradientTransform="scale(1.03682,0.964486)" />
    <radialGradient cx="18.63378" cy="17.486208" r="40.692665" fx="18.934305" fy="17.810213" id="radialGradient1536" xlink:href="#linearGradient4750" gradientUnits="userSpaceOnUse" gradientTransform="scale(1.03682,0.964486)" />
    <radialGradient cx="18.63378" cy="17.486208" r="40.692665" fx="18.934305" fy="17.810213" id="radialGradient1538" xlink:href="#linearGradient4750" gradientUnits="userSpaceOnUse" gradientTransform="scale(1.03682,0.964486)" />
    <radialGradient cx="18.63378" cy="17.486208" r="40.692665" fx="18.934305" fy="17.810213" id="radialGradient1542" xlink:href="#linearGradient4750" gradientUnits="userSpaceOnUse" gradientTransform="scale(1.03682,0.964486)" />
    <radialGradient cx="18.63378" cy="17.486208" r="40.692665" fx="18.934305" fy="17.810213" id="radialGradient1546" xlink:href="#linearGradient4750" gradientUnits="userSpaceOnUse" gradientTransform="scale(1.03682,0.964486)" />
    <radialGradient cx="18.63378" cy="17.486208" r="40.692665" fx="18.934305" fy="17.810213" id="radialGradient1550" xlink:href="#linearGradient4750" gradientUnits="userSpaceOnUse" gradientTransform="scale(1.03682,0.964486)" />
    <radialGradient cx="18.63378" cy="17.486208" r="40.692665" fx="18.934305" fy="17.810213" id="radialGradient1554" xlink:href="#linearGradient4750" gradientUnits="userSpaceOnUse" gradientTransform="scale(1.03682,0.964486)" />
    <radialGradient cx="18.63378" cy="17.486208" r="40.692665" fx="18.934305" fy="17.810213" id="radialGradient1558" xlink:href="#linearGradient4750" gradientUnits="userSpaceOnUse" gradientTransform="scale(1.03682,0.964486)" />
    <radialGradient cx="18.63378" cy="17.486208" r="40.692665" fx="18.934305" fy="17.810213" id="radialGradient240" xlink:href="#linearGradient4750" gradientUnits="userSpaceOnUse" gradientTransform="scale(1.03682,0.964486)" />
    <radialGradient cx="18.63378" cy="17.486208" r="40.692665" fx="18.934305" fy="17.810213" id="radialGradient242" xlink:href="#linearGradient4750" gradientUnits="userSpaceOnUse" gradientTransform="scale(1.03682,0.964486)" />
    <radialGradient cx="18.63378" cy="17.486208" r="40.692665" fx="18.934305" fy="17.810213" id="radialGradient244" xlink:href="#linearGradient4750" gradientUnits="userSpaceOnUse" gradientTransform="scale(1.03682,0.964486)" />
    <radialGradient cx="18.63378" cy="17.486208" r="40.692665" fx="18.934305" fy="17.810213" id="radialGradient246" xlink:href="#linearGradient4750" gradientUnits="userSpaceOnUse" gradientTransform="scale(1.03682,0.964486)" />
    <radialGradient cx="18.63378" cy="17.486208" r="40.692665" fx="18.934305" fy="17.810213" id="radialGradient248" xlink:href="#linearGradient4750" gradientUnits="userSpaceOnUse" gradientTransform="scale(1.03682,0.964486)" />
    <radialGradient cx="18.63378" cy="17.486208" r="40.692665" fx="18.934305" fy="17.810213" id="radialGradient250" xlink:href="#linearGradient4750" gradientUnits="userSpaceOnUse" gradientTransform="scale(1.03682,0.964486)" />
    <radialGradient cx="18.63378" cy="17.486208" r="40.692665" fx="18.934305" fy="17.810213" id="radialGradient252" xlink:href="#linearGradient4750" gradientUnits="userSpaceOnUse" gradientTransform="scale(1.03682,0.964486)" />
    <radialGradient cx="18.63378" cy="17.486208" r="40.692665" fx="18.934305" fy="17.810213" id="radialGradient254" xlink:href="#linearGradient4750" gradientUnits="userSpaceOnUse" gradientTransform="scale(1.03682,0.964486)" />
    <radialGradient cx="18.63378" cy="17.486208" r="40.692665" fx="18.934305" fy="17.810213" id="radialGradient256" xlink:href="#linearGradient4750" gradientUnits="userSpaceOnUse" gradientTransform="scale(1.03682,0.964486)" />
    <radialGradient cx="18.63378" cy="17.486208" r="40.692665" fx="18.934305" fy="17.810213" id="radialGradient258" xlink:href="#linearGradient4750" gradientUnits="userSpaceOnUse" gradientTransform="scale(1.03682,0.964486)" />
    <radialGradient cx="18.63378" cy="17.486208" r="40.692665" fx="18.934305" fy="17.810213" id="radialGradient260" xlink:href="#linearGradient4750" gradientUnits="userSpaceOnUse" gradientTransform="scale(1.03682,0.964486)" />
    <radialGradient cx="18.63378" cy="17.486208" r="40.692665" fx="18.934305" fy="17.810213" id="radialGradient262" xlink:href="#linearGradient4750" gradientUnits="userSpaceOnUse" gradientTransform="scale(1.03682,0.964486)" />
    <radialGradient cx="18.63378" cy="17.486208" r="40.692665" fx="18.934305" fy="17.810213" id="radialGradient264" xlink:href="#linearGradient4750" gradientUnits="userSpaceOnUse" gradientTransform="scale(1.03682,0.964486)" />
    <radialGradient cx="18.63378" cy="17.486208" r="40.692665" fx="18.934305" fy="17.810213" id="radialGradient266" xlink:href="#linearGradient4750" gradientUnits="userSpaceOnUse" gradientTransform="scale(1.03682,0.964486)" />
    <radialGradient cx="18.63378" cy="17.486208" r="40.692665" fx="18.934305" fy="17.810213" id="radialGradient268" xlink:href="#linearGradient4750" gradientUnits="userSpaceOnUse" gradientTransform="scale(1.03682,0.964486)" />
    <radialGradient cx="18.63378" cy="17.486208" r="40.692665" fx="18.934305" fy="17.810213" id="radialGradient270" xlink:href="#linearGradient4750" gradientUnits="userSpaceOnUse" gradientTransform="scale(1.03682,0.964486)" />
    <radialGradient cx="18.63378" cy="17.486208" r="40.692665" fx="18.934305" fy="17.810213" id="radialGradient272" xlink:href="#linearGradient4750" gradientUnits="userSpaceOnUse" gradientTransform="scale(1.03682,0.964486)" />
    <radialGradient cx="18.63378" cy="17.486208" r="40.692665" fx="18.934305" fy="17.810213" id="radialGradient274" xlink:href="#linearGradient4750" gradientUnits="userSpaceOnUse" gradientTransform="scale(1.03682,0.964486)" />
    <radialGradient cx="18.63378" cy="17.486208" r="40.692665" fx="18.934305" fy="17.810213" id="radialGradient276" xlink:href="#linearGradient4750" gradientUnits="userSpaceOnUse" gradientTransform="scale(1.03682,0.964486)" />
    <radialGradient cx="18.63378" cy="17.486208" r="40.692665" fx="18.934305" fy="17.810213" id="radialGradient278" xlink:href="#linearGradient4750" gradientUnits="userSpaceOnUse" gradientTransform="scale(1.03682,0.964486)" />
    <radialGradient cx="18.63378" cy="17.486208" r="40.692665" fx="18.934305" fy="17.810213" id="radialGradient280" xlink:href="#linearGradient4750" gradientUnits="userSpaceOnUse" gradientTransform="scale(1.03682,0.964486)" />
    <radialGradient cx="18.63378" cy="17.486208" r="40.692665" fx="18.934305" fy="17.810213" id="radialGradient282" xlink:href="#linearGradient4750" gradientUnits="userSpaceOnUse" gradientTransform="scale(1.03682,0.964486)" />
    <radialGradient cx="18.63378" cy="17.486208" r="40.692665" fx="18.934305" fy="17.810213" id="radialGradient284" xlink:href="#linearGradient4750" gradientUnits="userSpaceOnUse" gradientTransform="scale(1.03682,0.964486)" />
    <radialGradient cx="18.63378" cy="17.486208" r="40.692665" fx="18.934305" fy="17.810213" id="radialGradient286" xlink:href="#linearGradient4750" gradientUnits="userSpaceOnUse" gradientTransform="scale(1.03682,0.964486)" />
    <radialGradient cx="18.63378" cy="17.486208" r="40.692665" fx="18.934305" fy="17.810213" id="radialGradient288" xlink:href="#linearGradient4750" gradientUnits="userSpaceOnUse" gradientTransform="scale(1.03682,0.964486)" />
    <radialGradient cx="18.63378" cy="17.486208" r="40.692665" fx="18.934305" fy="17.810213" id="radialGradient290" xlink:href="#linearGradient4750" gradientUnits="userSpaceOnUse" gradientTransform="scale(1.03682,0.964486)" />
    <radialGradient cx="15.601279" cy="12.142302" r="43.526714" fx="15.601279" fy="12.142302" id="radialGradient293" xlink:href="#linearGradient4126" gradientUnits="userSpaceOnUse" gradientTransform="scale(0.999989,1.00001)" />
    <radialGradient cx="18.247644" cy="15.716079" r="29.993349" fx="18.247644" fy="15.716079" id="radialGradient377" xlink:href="#linearGradient3962" gradientUnits="userSpaceOnUse" gradientTransform="scale(0.999989,1.00001)" />
    <radialGradient cx="18.63378" cy="17.486208" r="40.692665" fx="18.934305" fy="17.810213" id="radialGradient412" xlink:href="#linearGradient4750" gradientUnits="userSpaceOnUse" gradientTransform="scale(1.03682,0.964486)" />
    <radialGradient cx="18.63378" cy="17.486208" r="40.692665" fx="18.934305" fy="17.810213" id="radialGradient414" xlink:href="#linearGradient4750" gradientUnits="userSpaceOnUse" gradientTransform="scale(1.03682,0.964486)" />
    <radialGradient cx="18.63378" cy="17.486208" r="40.692665" fx="18.934305" fy="17.810213" id="radialGradient420" xlink:href="#linearGradient4750" gradientUnits="userSpaceOnUse" gradientTransform="scale(1.03682,0.964486)" />
    <radialGradient cx="18.63378" cy="17.486208" r="40.692665" fx="18.934305" fy="17.810213" id="radialGradient423" xlink:href="#linearGradient4750" gradientUnits="userSpaceOnUse" gradientTransform="matrix(1.0185419,0,0,0.94748308,-0.0809518,0.030883)" />
    <radialGradient cx="18.63378" cy="17.486208" r="40.692665" fx="18.934305" fy="17.810213" id="radialGradient427" xlink:href="#linearGradient4750" gradientUnits="userSpaceOnUse" gradientTransform="scale(1.03682,0.964486)" />
    <radialGradient cx="18.63378" cy="17.486208" r="40.692665" fx="18.934305" fy="17.810213" id="radialGradient429" xlink:href="#linearGradient4750" gradientUnits="userSpaceOnUse" gradientTransform="scale(1.03682,0.964486)" />
    <radialGradient cx="18.63378" cy="17.486208" r="40.692665" fx="18.934305" fy="17.810213" id="radialGradient435" xlink:href="#linearGradient4750" gradientUnits="userSpaceOnUse" gradientTransform="scale(1.03682,0.964486)" />
    <radialGradient cx="18.63378" cy="17.486208" r="40.692665" fx="18.934305" fy="17.810213" id="radialGradient438" xlink:href="#linearGradient4750" gradientUnits="userSpaceOnUse" gradientTransform="matrix(1.0185419,0,0,0.94748308,-0.0809518,0.030883)" />
    <radialGradient cx="18.63378" cy="17.486208" r="40.692665" fx="18.934305" fy="17.810213" id="radialGradient442" xlink:href="#linearGradient4750" gradientUnits="userSpaceOnUse" gradientTransform="scale(1.03682,0.964486)" />
    <radialGradient cx="18.63378" cy="17.486208" r="40.692665" fx="18.934305" fy="17.810213" id="radialGradient444" xlink:href="#linearGradient4750" gradientUnits="userSpaceOnUse" gradientTransform="scale(1.03682,0.964486)" />
    <radialGradient cx="18.63378" cy="17.486208" r="40.692665" fx="18.934305" fy="17.810213" id="radialGradient450" xlink:href="#linearGradient4750" gradientUnits="userSpaceOnUse" gradientTransform="scale(1.03682,0.964486)" />
    <radialGradient cx="18.63378" cy="17.486208" r="40.692665" fx="18.934305" fy="17.810213" id="radialGradient453" xlink:href="#linearGradient4750" gradientUnits="userSpaceOnUse" gradientTransform="matrix(1.0185419,0,0,0.94748308,-0.0809518,0.030883)" />
    <radialGradient cx="18.63378" cy="17.486208" r="40.692665" fx="18.934305" fy="17.810213" id="radialGradient457" xlink:href="#linearGradient4750" gradientUnits="userSpaceOnUse" gradientTransform="scale(1.03682,0.964486)" />
    <radialGradient cx="18.63378" cy="17.486208" r="40.692665" fx="18.934305" fy="17.810213" id="radialGradient459" xlink:href="#linearGradient4750" gradientUnits="userSpaceOnUse" gradientTransform="scale(1.03682,0.964486)" />
    <radialGradient cx="18.63378" cy="17.486208" r="40.692665" fx="18.934305" fy="17.810213" id="radialGradient465" xlink:href="#linearGradient4750" gradientUnits="userSpaceOnUse" gradientTransform="scale(1.03682,0.964486)" />
    <radialGradient cx="18.63378" cy="17.486208" r="40.692665" fx="18.934305" fy="17.810213" id="radialGradient468" xlink:href="#linearGradient4750" gradientUnits="userSpaceOnUse" gradientTransform="matrix(1.0185419,0,0,0.94748308,-0.0809518,0.030883)" />
    <radialGradient cx="18.63378" cy="17.486208" r="40.692665" fx="18.934305" fy="17.810213" id="radialGradient484" xlink:href="#linearGradient4750" gradientUnits="userSpaceOnUse" gradientTransform="scale(1.03682,0.964486)" />
    <radialGradient cx="18.63378" cy="17.486208" r="40.692665" fx="18.934305" fy="17.810213" id="radialGradient486" xlink:href="#linearGradient4750" gradientUnits="userSpaceOnUse" gradientTransform="scale(1.03682,0.964486)" />
    <radialGradient cx="18.63378" cy="17.486208" r="40.692665" fx="18.934305" fy="17.810213" id="radialGradient492" xlink:href="#linearGradient4750" gradientUnits="userSpaceOnUse" gradientTransform="scale(1.03682,0.964486)" />
    <radialGradient cx="18.63378" cy="17.486208" r="40.692665" fx="18.934305" fy="17.810213" id="radialGradient495" xlink:href="#linearGradient4750" gradientUnits="userSpaceOnUse" gradientTransform="matrix(1.0185419,0,0,0.94748308,-0.0809518,0.030883)" />
    <radialGradient cx="18.63378" cy="17.486208" r="40.692665" fx="18.934305" fy="17.810213" id="radialGradient499" xlink:href="#linearGradient4750" gradientUnits="userSpaceOnUse" gradientTransform="scale(1.03682,0.964486)" />
    <radialGradient cx="18.63378" cy="17.486208" r="40.692665" fx="18.934305" fy="17.810213" id="radialGradient501" xlink:href="#linearGradient4750" gradientUnits="userSpaceOnUse" gradientTransform="scale(1.03682,0.964486)" />
    <radialGradient cx="18.63378" cy="17.486208" r="40.692665" fx="18.934305" fy="17.810213" id="radialGradient507" xlink:href="#linearGradient4750" gradientUnits="userSpaceOnUse" gradientTransform="scale(1.03682,0.964486)" />
    <radialGradient cx="18.63378" cy="17.486208" r="40.692665" fx="18.934305" fy="17.810213" id="radialGradient509" xlink:href="#linearGradient4750" gradientUnits="userSpaceOnUse" gradientTransform="scale(1.03682,0.964486)" />
    <radialGradient cx="18.63378" cy="17.486208" r="40.692665" fx="18.934305" fy="17.810213" id="radialGradient519" xlink:href="#linearGradient4750" gradientUnits="userSpaceOnUse" gradientTransform="scale(1.03682,0.964486)" />
    <radialGradient cx="18.63378" cy="17.486208" r="40.692665" fx="18.934305" fy="17.810213" id="radialGradient526" xlink:href="#linearGradient4750" gradientUnits="userSpaceOnUse" gradientTransform="scale(1.03682,0.964486)" />
    <radialGradient cx="18.63378" cy="17.486208" r="40.692665" fx="18.934305" fy="17.810213" id="radialGradient532" xlink:href="#linearGradient4750" gradientUnits="userSpaceOnUse" gradientTransform="scale(1.03682,0.964486)" />
    <radialGradient cx="18.63378" cy="17.486208" r="40.692665" fx="18.934305" fy="17.810213" id="radialGradient535" xlink:href="#linearGradient4750" gradientUnits="userSpaceOnUse" gradientTransform="matrix(1.0185419,0,0,0.94748308,-0.0809518,0.030883)" />
    <radialGradient cx="18.63378" cy="17.486208" r="40.692665" fx="18.934305" fy="17.810213" id="radialGradient539" xlink:href="#linearGradient4750" gradientUnits="userSpaceOnUse" gradientTransform="scale(1.03682,0.964486)" />
    <radialGradient cx="18.63378" cy="17.486208" r="40.692665" fx="18.934305" fy="17.810213" id="radialGradient541" xlink:href="#linearGradient4750" gradientUnits="userSpaceOnUse" gradientTransform="scale(1.03682,0.964486)" />
    <radialGradient cx="18.63378" cy="17.486208" r="40.692665" fx="18.934305" fy="17.810213" id="radialGradient547" xlink:href="#linearGradient4750" gradientUnits="userSpaceOnUse" gradientTransform="scale(1.03682,0.964486)" />
    <radialGradient cx="18.63378" cy="17.486208" r="40.692665" fx="18.934305" fy="17.810213" id="radialGradient550" xlink:href="#linearGradient4750" gradientUnits="userSpaceOnUse" gradientTransform="matrix(1.0185419,0,0,0.94748308,-0.0809518,0.030883)" />
    <radialGradient cx="18.63378" cy="17.486208" r="40.692665" fx="18.934305" fy="17.810213" id="radialGradient554" xlink:href="#linearGradient4750" gradientUnits="userSpaceOnUse" gradientTransform="scale(1.03682,0.964486)" />
    <radialGradient cx="18.63378" cy="17.486208" r="40.692665" fx="18.934305" fy="17.810213" id="radialGradient558" xlink:href="#linearGradient4750" gradientUnits="userSpaceOnUse" gradientTransform="scale(1.03682,0.964486)" />
    <radialGradient cx="18.63378" cy="17.486208" r="40.692665" fx="18.934305" fy="17.810213" id="radialGradient560" xlink:href="#linearGradient4750" gradientUnits="userSpaceOnUse" gradientTransform="scale(1.03682,0.964486)" />
    <radialGradient cx="18.63378" cy="17.486208" r="40.692665" fx="18.934305" fy="17.810213" id="radialGradient568" xlink:href="#linearGradient4750" gradientUnits="userSpaceOnUse" gradientTransform="scale(1.03682,0.964486)" />
    <radialGradient cx="18.63378" cy="17.486208" r="40.692665" fx="18.934305" fy="17.810213" id="radialGradient571" xlink:href="#linearGradient4750" gradientUnits="userSpaceOnUse" gradientTransform="matrix(1.0185419,0,0,0.94748308,-0.0809518,0.030883)" />
    <radialGradient cx="18.63378" cy="17.486208" r="40.692665" fx="18.934305" fy="17.810213" id="radialGradient575" xlink:href="#linearGradient4750" gradientUnits="userSpaceOnUse" gradientTransform="scale(1.03682,0.964486)" />
    <radialGradient cx="18.63378" cy="17.486208" r="40.692665" fx="18.934305" fy="17.810213" id="radialGradient578" xlink:href="#linearGradient4750" gradientUnits="userSpaceOnUse" gradientTransform="matrix(1.0185419,0,0,0.94748308,-0.0809518,0.030883)" />
    <radialGradient cx="18.63378" cy="17.486208" r="40.692665" fx="18.934305" fy="17.810213" id="radialGradient582" xlink:href="#linearGradient4750" gradientUnits="userSpaceOnUse" gradientTransform="scale(1.03682,0.964486)" />
    <radialGradient cx="18.63378" cy="17.486208" r="40.692665" fx="18.934305" fy="17.810213" id="radialGradient586" xlink:href="#linearGradient4750" gradientUnits="userSpaceOnUse" gradientTransform="scale(1.03682,0.964486)" />
    <radialGradient cx="18.63378" cy="17.486208" r="40.692665" fx="18.934305" fy="17.810213" id="radialGradient588" xlink:href="#linearGradient4750" gradientUnits="userSpaceOnUse" gradientTransform="scale(1.03682,0.964486)" />
    <radialGradient cx="18.63378" cy="17.486208" r="40.692665" fx="18.934305" fy="17.810213" id="radialGradient596" xlink:href="#linearGradient4750" gradientUnits="userSpaceOnUse" gradientTransform="scale(1.03682,0.964486)" />
    <radialGradient cx="18.63378" cy="17.486208" r="40.692665" fx="18.934305" fy="17.810213" id="radialGradient599" xlink:href="#linearGradient4750" gradientUnits="userSpaceOnUse" gradientTransform="matrix(1.0185419,0,0,0.94748308,-0.0809518,0.030883)" />
    <radialGradient cx="18.63378" cy="17.486208" r="40.692665" fx="18.934305" fy="17.810213" id="radialGradient603" xlink:href="#linearGradient4750" gradientUnits="userSpaceOnUse" gradientTransform="scale(1.03682,0.964486)" />
    <radialGradient cx="18.63378" cy="17.486208" r="40.692665" fx="18.934305" fy="17.810213" id="radialGradient606" xlink:href="#linearGradient4750" gradientUnits="userSpaceOnUse" gradientTransform="matrix(1.0185419,0,0,0.94748308,-0.0809518,0.030883)" />
    <radialGradient cx="18.63378" cy="17.486208" r="40.692665" fx="18.934305" fy="17.810213" id="radialGradient610" xlink:href="#linearGradient4750" gradientUnits="userSpaceOnUse" gradientTransform="scale(1.03682,0.964486)" />
    <radialGradient cx="18.63378" cy="17.486208" r="40.692665" fx="18.934305" fy="17.810213" id="radialGradient612" xlink:href="#linearGradient4750" gradientUnits="userSpaceOnUse" gradientTransform="scale(1.03682,0.964486)" />
    <radialGradient cx="18.63378" cy="17.486208" r="40.692665" fx="18.934305" fy="17.810213" id="radialGradient618" xlink:href="#linearGradient4750" gradientUnits="userSpaceOnUse" gradientTransform="scale(1.03682,0.964486)" />
    <radialGradient cx="18.63378" cy="17.486208" r="40.692665" fx="18.934305" fy="17.810213" id="radialGradient621" xlink:href="#linearGradient4750" gradientUnits="userSpaceOnUse" gradientTransform="matrix(1.0185419,0,0,0.94748308,-0.0809518,0.030883)" />
    <radialGradient cx="18.63378" cy="17.486208" r="40.692665" fx="18.934305" fy="17.810213" id="radialGradient625" xlink:href="#linearGradient4750" gradientUnits="userSpaceOnUse" gradientTransform="scale(1.03682,0.964486)" />
    <radialGradient cx="18.63378" cy="17.486208" r="40.692665" fx="18.934305" fy="17.810213" id="radialGradient627" xlink:href="#linearGradient4750" gradientUnits="userSpaceOnUse" gradientTransform="scale(1.03682,0.964486)" />
    <radialGradient cx="18.63378" cy="17.486208" r="40.692665" fx="18.934305" fy="17.810213" id="radialGradient633" xlink:href="#linearGradient4750" gradientUnits="userSpaceOnUse" gradientTransform="scale(1.03682,0.964486)" />
    <radialGradient cx="18.63378" cy="17.486208" r="40.692665" fx="18.934305" fy="17.810213" id="radialGradient636" xlink:href="#linearGradient4750" gradientUnits="userSpaceOnUse" gradientTransform="matrix(1.0185419,0,0,0.94748308,-0.0809518,0.030883)" />
  </defs>
  <path d="M 45.052803,38.908627 A 20.203051,7.4751287 0 1 1 4.6467018,38.908627 20.203051,7.4751287 0 1 1 45.052803,38.908627 z" transform="matrix(1,0,0,1.24324,0,-10.2724)" id="path4112" fill="url(#radialGradient4120)" />
  <path d="M 43.959853,23.485499 C 43.959853,34.195217 35.27775,42.877222 24.569505,42.877222 13.860279,42.877222 5.1786663,34.195119 5.1786663,23.485499 5.1786663,12.776272 13.860279,4.0951517 24.569505,4.0951517 35.27775,4.0951517 43.959853,12.776272 43.959853,23.485499 L 43.959853,23.485499 z" fill="url(#radialGradient377)" stroke="#39396c" />
  <path d="M 30.708637,15.271057 A 12.929953,9.2934036 0 1 1 4.848732,15.271057 12.929953,9.2934036 0 1 1 30.708637,15.271057 z" transform="matrix(0.835938,0,0,1,9.88687,0)" id="path4348" opacity="0.42" fill="url(#radialGradient4356)" />
  <path d="M 18.519414,14.640858 18.948219,13.994262 18.304963,13.509756 18.519414,14.640858 M 18.162519,27.977232 17.590779,26.845246 16.5197,26.602993 15.948451,25.068039 14.520477,25.229246 13.306856,24.340888 12.020834,25.47199 12.020834,25.650388 C 11.631815,25.538103 11.153597,25.522778 10.807213,25.3098 L 10.521343,24.501997 10.521343,23.612656 9.6646168,23.693211 C 9.7361334,23.127168 9.8070606,22.562109 9.8790684,21.996165 L 9.3787468,21.996165 8.8794077,22.642761 8.3790861,22.884523 7.6648041,22.481554 7.5932875,21.592214 7.7362225,20.622319 8.8077928,19.814515 9.6645186,19.814515 9.8069623,19.329126 10.878041,19.570887 11.663742,20.541764 11.806677,18.924291 13.163626,17.793189 13.663456,16.58055 14.663117,16.176697 15.234366,15.368893 16.519405,15.125265 17.162662,14.156353 C 16.519896,14.156353 15.877131,14.156353 15.234366,14.156353 L 16.44838,13.590311 17.304614,13.590311 18.51912,13.185476 18.662055,12.701953 18.23325,12.297118 17.733419,12.135026 17.876354,11.650521 17.519459,10.92337 16.662242,11.245686 16.805177,10.59958 15.805516,10.033538 15.020307,11.406795 15.091332,11.892184 14.306123,12.216465 13.805802,13.266914 13.591841,12.297019 12.234892,11.730977 12.020441,11.003826 13.805802,9.9523944 14.591502,9.2252434 14.663019,8.3363941 14.234705,8.0936503 13.663456,8.0126047 13.306561,8.9019451 C 13.306561,8.9019451 12.709377,9.0189455 12.555833,9.056865 10.594922,10.863838 6.6328234,14.764539 5.7123418,22.12849 5.7487877,22.299226 6.3795682,23.28926 6.3795682,23.28926 L 7.8790593,24.177618 9.3785504,24.582453 10.021807,25.391141 11.020976,26.118292 11.592225,26.037737 12.020539,26.230577 12.020539,26.361035 11.449683,27.896481 11.020878,28.543078 11.163813,28.867359 10.806918,30.078033 12.092448,32.422658 13.377488,33.554644 13.949228,34.362447 13.877318,36.060476 14.306123,37.029388 13.877318,38.888623 C 13.877318,38.888623 13.843721,38.87713 13.898439,39.063191 13.953649,39.24935 16.18648,40.488808 16.328432,40.383301 16.469894,40.27583 16.590824,40.181817 16.590824,40.181817 L 16.44838,39.778848 17.019236,39.212806 17.233687,38.646764 18.162322,38.322483 18.876113,36.5439 18.662153,36.060377 19.161001,35.333226 20.232571,35.089598 20.804311,33.796405 20.661376,32.180896 21.518102,30.968257 21.661037,29.755618 C 20.488675,29.174251 19.325941,28.575594 18.162322,27.977036 M 14.73483,8.983089 14.377443,9.8719383 15.091725,9.8719383 15.449112,9.0636434 C 15.757085,8.8458517 16.063585,8.6266848 16.377256,8.4170468 L 17.091538,8.6597907 C 17.567399,8.983089 18.043259,9.3063873 18.519513,9.6291944 L 19.234187,8.983089 18.447996,8.6597907 18.090609,7.9321485 16.734053,7.7704502 16.662537,7.3661063 16.019771,7.5281975 15.734491,8.0938467 15.377104,7.3662045 15.23466,7.6895028 15.306177,8.4977977 14.73483,8.983089 M 26.517486,5.9928499 24.660215,5.2652077 22.518941,5.5074604 19.87597,6.2346114 19.37614,6.7200009 21.018566,7.8511029 21.018566,8.4976995 20.375801,9.1442961 21.233411,10.842816 21.803284,10.518535 22.518941,9.3874329 C 23.622144,9.0463537 24.611293,8.6597907 25.659876,8.1747941 L 26.517486,5.9927516 M 25.731786,9.3063873 25.659876,9.7908926 26.160689,10.114191 27.016432,9.54864 26.58861,9.0636434 26.01687,9.3874329 25.731982,9.3063873 M 28.445782,12.782605 28.159912,12.054472 27.659099,12.216563 27.803017,13.104921 28.445782,12.782605 M 43.415446,20.58214 C 43.415446,20.840209 43.415446,20.58214 43.415446,20.58214 L 42.880152,21.188459 C 42.55204,20.801798 42.183651,20.476633 41.809564,20.137028 L 40.9884,20.257859 40.238164,19.409778 40.238164,20.459343 40.880929,20.945715 41.308751,21.430221 41.880491,20.783624 C 42.024409,21.053187 42.166361,21.322749 42.309296,21.592312 L 42.309296,22.400116 41.665549,23.127267 40.487489,23.935954 39.5953,24.826277 39.02356,24.177716 39.30943,23.450565 38.738574,22.803968 37.774475,20.743249 36.953311,19.814613 36.738369,20.056375 37.060685,21.228736 37.667004,21.91561 C 38.01329,22.915271 38.355842,23.870725 38.810582,24.826277 39.515728,24.826277 40.180498,24.751421 40.880831,24.663204 L 40.880831,25.229246 40.024105,27.330734 39.238405,28.219092 38.595639,29.594804 C 38.595639,30.348872 38.595639,31.10294 38.595639,31.85691 L 38.810582,32.747233 38.453687,33.150201 37.667004,33.635591 36.84584,34.322465 37.525051,35.089991 36.596416,35.899661 36.774815,36.423462 35.381812,38.000658 34.45416,38.000658 33.668459,38.486048 33.167646,38.486048 33.167646,37.839451 32.954668,36.544293 C 32.678327,35.732658 32.390591,34.926819 32.097943,34.12098 32.097943,33.526155 32.133406,32.937125 32.168968,32.342398 L 32.526846,31.534594 32.026033,30.563717 32.062479,29.230246 31.383268,28.46272 31.722873,27.351757 31.17029,26.724807 30.205209,26.724807 29.883875,26.361232 28.919776,26.968043 28.527417,26.522439 27.634245,27.290358 C 27.027926,26.602993 26.420624,25.91612 25.813421,25.229246 L 25.09963,23.531218 25.742395,22.562305 25.3855,22.158452 26.170218,20.298235 C 26.814948,19.496227 27.488363,18.726834 28.169539,17.954592 L 29.384045,17.631294 30.740601,17.470087 31.669236,17.712831 32.99023,19.045319 33.454597,18.520536 34.09638,18.439982 35.310885,18.843834 36.239521,18.843834 36.882286,18.277792 37.168156,17.873939 36.524408,17.470087 35.452838,17.389532 C 35.155474,16.977035 34.879133,16.543416 34.526069,16.176894 L 34.168191,16.338101 34.025256,17.389532 33.382491,16.662381 33.240538,15.852711 32.526748,15.288634 32.239895,15.288634 32.95457,16.096437 32.6687,16.823588 32.097844,16.984795 32.45474,16.257644 31.810992,15.935329 31.241119,15.288732 30.168566,15.530493 30.026613,15.852809 29.383848,16.257644 29.026953,17.146985 28.134763,17.591115 27.741422,17.146985 27.313599,17.146985 27.313599,15.691701 28.242235,15.206311 28.956026,15.206311 28.812108,14.641251 28.242235,14.075209 29.20545,13.872742 29.740743,13.267405 30.168566,12.539272 30.955249,12.539272 30.740306,11.974212 31.241119,11.650914 31.241119,12.29751 32.311707,12.539272 33.382295,11.650914 33.454204,11.246079 34.381857,10.599973 C 34.046083,10.641724 33.710308,10.672374 33.382196,10.761672 L 33.382196,10.033637 33.739092,9.2253417 33.382196,9.2253417 32.597871,9.9524927 32.382929,10.356837 32.597871,10.92337 32.239994,11.892282 31.669138,11.568984 31.17029,11.003924 30.383607,11.568984 30.097737,10.276282 31.454293,9.3874329 31.454293,8.9020434 32.311903,8.3364924 33.668459,8.0127029 34.597095,8.3364924 36.310448,8.6597907 35.882625,9.1442961 34.95399,9.1442961 35.882625,10.114191 36.596416,9.3063873 36.813225,8.9509654 C 36.813225,8.9509654 39.551191,11.404928 41.115912,14.089257 42.680633,16.77447 43.415446,19.939374 43.415446,20.58214 z M 17.304909,6.9617624 17.662296,6.6389553 18.376578,6.477257 C 18.865798,6.2393268 19.356984,6.0791021 19.876069,5.9112149 L 19.591181,5.4262183 18.669226,5.5586419 18.233643,5.9927516 17.515529,6.096883 16.877086,6.3967026 16.566755,6.5468089 16.377256,6.8005553 17.304909,6.9617624 M 16.591118,9.6291944 17.304909,10.114191 17.876649,10.114191 17.876649,9.54864 17.162858,9.2253417 16.591118,9.6291944 M 28.73067,12.619532 28.587735,13.590409 29.373435,13.428318 29.944291,12.863258 29.44446,12.377868 C 29.276573,11.930791 29.083734,11.51348 28.873605,11.084675 L 28.445782,11.084675 28.445782,11.569181 28.73067,11.892479 28.73067,12.61963" fill-opacity="0.71" />
  <path d="M 18.317383,14.438827 18.746188,13.792231 18.102932,13.307725 18.317383,14.438827 M 14.532799,8.781058 14.175413,9.6699073 14.889695,9.6699073 15.247081,8.8616124 C 15.555054,8.6438207 15.861554,8.4246538 16.175225,8.2150158 L 16.889507,8.4577597 C 17.365368,8.781058 17.841228,9.1043563 18.317482,9.4271634 L 19.032157,8.781058 18.245965,8.4577597 17.888579,7.7301175 16.532022,7.5684192 16.460506,7.1640753 15.81774,7.3261665 15.53246,7.8918157 15.175073,7.1641735 15.03263,7.4874718 15.104146,8.2957667 14.532799,8.781058 M 17.960488,27.775201 17.388748,26.643215 16.317669,26.400962 15.74642,24.866008 14.318446,25.027215 13.104825,24.138857 11.818803,25.269959 11.818803,25.448357 C 11.429784,25.336072 10.951566,25.320747 10.605182,25.107769 L 10.319312,24.299966 10.319312,23.410625 9.462586,23.49118 C 9.5341026,22.925137 9.6050298,22.360078 9.6770376,21.794134 L 9.176716,21.794134 8.6773769,22.44073 8.1770553,22.682492 7.4627733,22.279523 7.3912567,21.390183 7.5341917,20.420288 8.605762,19.612484 9.4624878,19.612484 9.6049315,19.127095 10.676011,19.368856 11.461711,20.339733 11.604646,18.72226 12.961595,17.591158 13.461425,16.378519 14.461086,15.974666 15.032335,15.166862 16.317374,14.923234 16.960631,13.954322 C 16.317866,13.954322 15.6751,13.954322 15.032335,13.954322 L 16.246349,13.38828 17.102583,13.38828 18.317089,12.983445 18.460024,12.499922 18.031219,12.095087 17.531388,11.932995 17.674323,11.44849 17.317428,10.721339 16.460211,11.043655 16.603146,10.397549 15.603485,9.8315073 14.818276,11.204764 14.889302,11.690153 14.104092,12.014434 13.603771,13.064883 13.389811,12.094988 12.032861,11.528946 11.81841,10.801795 13.603771,9.7503634 14.389471,9.0232124 14.460988,8.1343631 14.032674,7.8916193 13.461425,7.8105737 13.10453,8.6999141 C 13.10453,8.6999141 12.507347,8.8169145 12.353802,8.854834 10.392891,10.661807 6.4307926,14.562508 5.510311,21.926459 5.5467569,22.097195 6.1775374,23.087229 6.1775374,23.087229 L 7.6770285,23.975587 9.1765196,24.380422 9.8197761,25.18911 10.818946,25.916261 11.390194,25.835706 11.818508,26.028546 11.818508,26.159004 11.247652,27.69445 10.818847,28.341047 10.961782,28.665328 10.604887,29.876002 11.890418,32.220627 13.175457,33.352613 13.747197,34.160416 13.675288,35.858445 14.104092,36.827357 13.675288,38.686592 C 13.675288,38.686592 13.64169,38.675099 13.696409,38.86116 13.751618,39.047319 15.984449,40.286777 16.126401,40.18127 16.267863,40.073799 16.388793,39.979786 16.388793,39.979786 L 16.246349,39.576817 16.817205,39.010775 17.031656,38.444733 17.960292,38.120452 18.674082,36.341869 18.460122,35.858346 18.95897,35.131195 20.03054,34.887567 20.60228,33.594374 20.459345,31.978865 21.316071,30.766226 21.459006,29.553587 C 20.286644,28.97222 19.12391,28.373563 17.960292,27.775005 M 26.315455,5.7908189 24.458185,5.0631767 22.316911,5.3054294 19.67394,6.0325804 19.174109,6.5179699 20.816535,7.6490719 20.816535,8.2956685 20.17377,8.9422651 21.03138,10.640785 21.601253,10.316504 22.316911,9.1854019 C 23.420113,8.8443227 24.409263,8.4577597 25.457845,7.9727631 L 26.315455,5.7907206 M 25.529755,9.1043563 25.457845,9.5888616 25.958658,9.9121599 26.814401,9.346609 26.386579,8.8616124 25.814839,9.1854019 25.529951,9.1043563 M 43.213415,20.380109 C 43.213415,20.638178 43.213415,20.380109 43.213415,20.380109 L 42.678121,20.986428 C 42.350009,20.599767 41.98162,20.274602 41.607533,19.934997 L 40.786369,20.055828 40.036133,19.207747 40.036133,20.257312 40.678898,20.743684 41.106721,21.22819 41.678461,20.581593 C 41.822378,20.851156 41.964331,21.120718 42.107266,21.390281 L 42.107266,22.198085 41.463518,22.925236 40.285458,23.733923 39.393269,24.624246 38.821529,23.975685 39.107399,23.248534 38.536543,22.601937 37.572444,20.541218 36.751281,19.612582 36.536338,19.854344 36.858654,21.026705 37.464973,21.713579 C 37.811259,22.71324 38.153812,23.668694 38.608551,24.624246 39.313697,24.624246 39.978468,24.54939 40.6788,24.461173 L 40.6788,25.027215 39.822074,27.128703 39.036374,28.017061 38.393608,29.392773 C 38.393608,30.146841 38.393608,30.900909 38.393608,31.654879 L 38.608551,32.545202 38.251656,32.94817 37.464973,33.43356 36.643809,34.120434 37.32302,34.88796 36.394385,35.69763 36.572784,36.221431 35.179782,37.798627 34.252129,37.798627 33.466428,38.284017 32.965616,38.284017 32.965616,37.63742 32.752638,36.342262 C 32.476297,35.530627 32.18856,34.724788 31.895912,33.918949 31.895912,33.324124 31.931376,32.735094 31.966937,32.140367 L 32.324815,31.332563 31.824002,30.361686 31.860448,29.028215 31.181237,28.260689 31.520843,27.149726 30.968259,26.522776 30.003178,26.522776 29.681844,26.159201 28.717745,26.766012 28.325386,26.320408 27.432215,27.088327 C 26.825895,26.400962 26.218593,25.714089 25.61139,25.027215 L 24.897599,23.329187 25.540364,22.360274 25.183469,21.956421 25.968187,20.096204 C 26.612917,19.294196 27.286332,18.524803 27.967509,17.752561 L 29.182014,17.429263 30.53857,17.268056 31.467205,17.5108 32.788199,18.843288 33.252566,18.318505 33.894349,18.237951 35.108855,18.641803 36.03749,18.641803 36.680255,18.075761 36.966125,17.671908 36.322377,17.268056 35.250807,17.187501 C 34.953443,16.775004 34.677102,16.341385 34.324038,15.974863 L 33.966161,16.13607 33.823226,17.187501 33.18046,16.46035 33.038508,15.65068 32.324717,15.086603 32.037865,15.086603 32.752539,15.894406 32.466669,16.621557 31.895814,16.782764 32.252709,16.055613 31.608961,15.733298 31.039088,15.086701 29.966535,15.328462 29.824583,15.650778 29.181817,16.055613 28.824922,16.944954 27.932733,17.389084 27.539391,16.944954 27.111569,16.944954 27.111569,15.48967 28.040204,15.00428 28.753995,15.00428 28.610077,14.43922 28.040204,13.873178 29.003419,13.670711 29.538713,13.065374 29.966535,12.337241 30.753218,12.337241 30.538275,11.772181 31.039088,11.448883 31.039088,12.095479 32.109676,12.337241 33.180264,11.448883 33.252173,11.044048 34.179826,10.397942 C 33.844052,10.439693 33.508277,10.470343 33.180166,10.559641 L 33.180166,9.8316055 33.537061,9.0233107 33.180166,9.0233107 32.395841,9.7504617 32.180898,10.154806 32.395841,10.721339 32.037963,11.690251 31.467107,11.366953 30.968259,10.801893 30.181576,11.366953 29.895706,10.074251 31.252262,9.1854019 31.252262,8.7000124 32.109872,8.1344614 33.466428,7.8106719 34.395064,8.1344614 36.108417,8.4577597 35.680594,8.9422651 34.751959,8.9422651 35.680594,9.9121599 36.394385,9.1043563 36.611194,8.7489344 C 36.611194,8.7489344 39.349161,11.202897 40.913881,13.887226 42.478602,16.572439 43.213415,19.737343 43.213415,20.380109 z M 17.102878,6.7597314 17.460265,6.4369243 18.174547,6.275226 C 18.663767,6.0372958 19.154953,5.8770711 19.674038,5.7091839 L 19.38915,5.2241873 18.467195,5.3566109 18.031612,5.7907206 17.313499,5.894852 16.675056,6.1946716 16.364725,6.3447779 16.175225,6.5985243 17.102878,6.7597314 M 16.389087,9.4271634 17.102878,9.9121599 17.674618,9.9121599 17.674618,9.346609 16.960827,9.0233107 16.389087,9.4271634 M 28.528639,12.417501 28.385704,13.388378 29.171404,13.226287 29.74226,12.661227 29.24243,12.175837 C 29.074542,11.72876 28.881703,11.311449 28.671574,10.882644 L 28.243751,10.882644 28.243751,11.36715 28.528639,11.690448 28.528639,12.417599 M 28.243751,12.580574 27.957881,11.852441 27.457069,12.014532 27.600986,12.90289 28.243751,12.580574" fill="url(#radialGradient636)" />
  <path d="M 42.975093,23.485534 C 42.975093,33.651354 34.733915,41.89244 24.569493,41.89244 14.404139,41.89244 6.1634261,33.651261 6.1634261,23.485534 6.1634261,13.32018 14.404139,5.079934 24.569493,5.079934 34.733915,5.079934 42.975093,13.32018 42.975093,23.485534 L 42.975093,23.485534 z" fill="none" stroke="url(#radialGradient293)" />
 </svg>