<?xml version="1.0" encoding="UTF-8" standalone="no"?>
<!-- Created with Inkscape (http://www.inkscape.org/) -->

<svg
   xmlns:dc="http://purl.org/dc/elements/1.1/"
   xmlns:cc="http://creativecommons.org/ns#"
   xmlns:rdf="http://www.w3.org/1999/02/22-rdf-syntax-ns#"
   xmlns:svg="http://www.w3.org/2000/svg"
   xmlns="http://www.w3.org/2000/svg"
   xmlns:sodipodi="http://sodipodi.sourceforge.net/DTD/sodipodi-0.dtd"
   xmlns:inkscape="http://www.inkscape.org/namespaces/inkscape"
   width="497.64243"
   height="707.65826"
   id="svg2"
   version="1.1"
   inkscape:version="0.48.2 r9819"
   sodipodi:docname="qmark.svg"
   inkscape:export-filename="/mnt/tb/projects/dt/raggregate/icons/qmark.png"
   inkscape:export-xdpi="10.127754"
   inkscape:export-ydpi="10.127754">
  <defs
     id="defs4" />
  <sodipodi:namedview
     id="base"
     pagecolor="#ffffff"
     bordercolor="#666666"
     borderopacity="1.0"
     inkscape:pageopacity="0.0"
     inkscape:pageshadow="2"
     inkscape:zoom="0.35"
     inkscape:cx="-354.66976"
     inkscape:cy="355.95438"
     inkscape:document-units="px"
     inkscape:current-layer="layer1"
     showgrid="false"
     fit-margin-top="0"
     fit-margin-left="0"
     fit-margin-right="0"
     fit-margin-bottom="0"
     inkscape:window-width="1918"
     inkscape:window-height="1059"
     inkscape:window-x="0"
     inkscape:window-y="19"
     inkscape:window-maximized="0" />
  <metadata
     id="metadata7">
    <rdf:RDF>
      <cc:Work
         rdf:about="">
        <dc:format>image/svg+xml</dc:format>
        <dc:type
           rdf:resource="http://purl.org/dc/dcmitype/StillImage" />
        <dc:title></dc:title>
      </cc:Work>
    </rdf:RDF>
  </metadata>
  <g
     inkscape:label="Layer 1"
     inkscape:groupmode="layer"
     id="layer1"
     transform="translate(-51.09834,-180.65828)">
    <path
       style="fill:#000000;fill-opacity:1"
       id="path2994"
       d="m 171.91817,407.53386 c -2.38735,-4.34754 -6.32772,-7.42417 -9.38085,-11.2212 -5.54967,-6.90184 0.76395,-1.16966 -6.80307,-7.23135 -7.56359,-8.21808 -14.94627,-16.49216 -23.37739,-23.8495 -1.2973,-1.46989 -2.59461,-2.93977 -3.89191,-4.40966 -1.61152,-1.24557 -3.46879,-2.22572 -4.83457,-3.73671 -1.37852,-1.52509 -1.95555,-3.64835 -3.26969,-5.22925 -1.21724,-1.46433 -2.93212,-2.4427 -4.25012,-3.81703 -14.46194,-15.07992 7.82643,6.56096 -7.87115,-8.45339 -1.60951,-1.16237 -3.37325,-2.13663 -4.82853,-3.48712 -1.45948,-1.35439 -2.52761,-3.07849 -3.850297,-4.56676 -4.878148,-5.48888 -10.236633,-10.47732 -14.607327,-16.36831 -2.644378,-4.58347 -6.322696,-8.48091 -9.29933,-12.79788 -0.987186,-1.4317 -1.520009,-3.15101 -2.554125,-4.54919 -11.162443,-15.09224 3.017342,6.78101 -6.637142,-8.54172 -7.023113,-18.58703 3.929915,9.36946 -4.186093,-8.07865 -0.601789,-1.29375 -0.634946,-2.78907 -1.114265,-4.13302 -5.129503,-14.38245 1.62799,5.69193 -3.588123,-6.52632 -0.428885,-1.00462 -0.446257,-2.13862 -0.669386,-3.20793 -1.789456,-1.49223 -1.564257,-3.93754 -2.629141,-5.75962 -0.580658,-0.99354 -2.033354,-1.49796 -2.235446,-2.63085 -0.208728,-1.17009 1.317316,-2.19125 1.164977,-3.37 -2.532687,-3.51524 -1.918211,-1.59532 -2.036711,-5.69431 -0.304176,-1.98605 0.479013,-3.90032 0.486294,-5.86052 0.0039,-1.04417 -0.448043,-2.07628 -0.336166,-3.11445 0.107375,-0.99639 0.93788,-1.84155 0.978153,-2.8429 0.325496,-8.09328 -2.505998,2.83803 0.178828,-5.74853 -0.242253,-1.00445 -1.052682,-2.03285 -0.72676,-3.01335 0.39095,-1.17613 2.068169,-1.534 2.609008,-2.64918 0.430268,-0.88718 -0.231376,-2.03077 0.109412,-2.95602 0.386235,-1.04864 1.572135,-1.66608 1.976682,-2.70779 2.880241,-7.41666 -3.21263,1.60977 2.132817,-5.46601 0.780597,-0.60774 1.7925,-1.00045 2.341791,-1.82322 4.770626,-7.14587 -3.472889,1.36555 2.275051,-5.27866 0.693397,-0.80151 1.64174,-1.34414 2.407004,-2.07735 0.549573,-0.52656 3.652957,-3.96223 4.114202,-4.46983 6.04551,-3.89424 12.611013,-7.36761 19.620549,-9.08022 5.077556,-2.78787 10.455777,-3.14308 15.990444,-4.10359 3.38068,-0.58669 6.12783,-1.62155 9.378,-2.68719 1.83491,-0.23038 3.68415,-0.3664 5.50473,-0.69112 1.76375,-0.31459 9.78378,-2.37038 11.49192,-2.56311 27.1021,-3.05784 -15.17002,2.95436 13.59428,-0.12674 2.40616,-0.25774 4.73251,-1.01366 7.09876,-1.52048 2.66914,-0.14505 5.33437,-0.44787 8.00741,-0.43516 6.06243,0.0288 12.0975,0.94235 18.15967,1.00576 8.13822,0.0851 16.28333,-0.81199 24.41244,-0.41756 3.5596,0.17271 7.08326,0.79362 10.62489,1.19042 3.49693,0.44677 7.01917,0.72717 10.49081,1.3403 3.54881,0.62676 6.99352,1.77576 10.54704,2.37521 3.70184,0.62448 7.48314,0.686 11.18815,1.29136 3.78268,0.61806 7.47814,1.69713 11.25057,2.37494 3.84945,0.69165 7.79252,0.85804 11.60481,1.7316 3.80378,0.87162 7.45021,2.32556 11.17532,3.48834 12.08146,1.84917 24.09213,4.75398 35.77058,8.37134 7.78177,2.41037 15.23428,5.8311 23.05951,8.09641 4.0882,1.18348 8.29304,1.91866 12.43956,2.87799 7.0947,3.50058 14.85208,5.34743 22.07765,8.50864 3.4972,1.53003 6.70333,3.67855 10.21104,5.18432 3.57915,1.53643 7.43095,2.37889 11.00646,3.92378 37.92261,16.38542 -17.91084,-5.61534 21.09342,9.44696 4.22573,1.6929 16.88286,6.53054 20.8477,9.03196 2.99642,1.89044 5.24762,4.79378 8.16251,6.80767 2.88182,1.99105 6.23531,3.22312 9.15557,5.15737 4.30315,2.85021 11.70733,9.32767 15.67104,12.69109 2.88042,1.62029 6.02375,2.84327 8.64127,4.86088 2.40751,1.85574 4.13264,4.46 6.26346,6.62784 6.01945,6.124 13.07046,11.80512 18.40959,18.55841 1.71352,2.16738 2.99172,4.64589 4.48759,6.96884 13.12811,15.65183 -2.08014,-2.98714 9.87448,13.27239 1.5954,2.16991 3.6742,3.97586 5.13338,6.23962 1.45664,2.25981 2.22541,4.9033 3.55533,7.23994 7.31332,12.84934 1.54734,-0.27221 6.96123,13.31995 6.45844,9.56808 2.5337,2.76155 6.936,13.14506 0.93843,2.21344 2.4043,4.22941 3.00164,6.55816 0.60241,2.34851 0.0432,4.8806 0.54112,7.25345 3.93149,18.73591 1.43487,-5.57041 2.92175,13.71505 0.12029,4.66556 1.96987,9.06541 2.42852,13.67096 0.0604,0.60651 0.0163,12.90531 0.0271,13.64188 0.17763,12.10151 0.36139,1.64486 0.005,13.45638 0.6032,6.7579 -3.38107,13.23348 -4.60677,19.271 -0.44557,2.19474 -0.0111,4.50016 -0.39166,6.7071 -0.91632,5.31406 -2.48512,7.88199 -4.7105,12.67484 -5.4272,13.91281 0.92239,-1.3772 -5.94049,12.17885 -3.30857,6.53532 -1.60973,5.46285 -5.42992,11.73694 -0.6486,1.06524 -7.28733,10.01764 -7.99809,10.98113 -1.72893,2.46603 -6.08567,8.81943 -8.06879,11.08842 -1.51272,1.73079 -3.52757,3.00896 -4.8977,4.85467 -1.32276,1.78189 -1.70901,4.15869 -3.08545,5.89944 -1.40623,1.77841 -3.417,2.9808 -5.11989,4.47759 -1.72448,1.51577 -3.44147,3.04004 -5.1622,4.56006 -4.33036,4.14783 -5.68229,5.69722 -10.52193,9.30236 -1.8277,1.36148 -4.03041,2.23984 -5.66539,3.82758 -1.59596,1.54984 -2.10903,4.0797 -3.87302,5.43521 -16.92754,13.00767 2.15312,-7.35521 -10.52556,7.09317 -5.07026,2.8847 -8.70813,7.87513 -13.47452,11.10715 -1.67202,1.13377 -3.7788,1.55415 -5.3869,2.77689 -12.59934,9.58009 6.30754,-1.32343 -8.13007,6.46044 -3.36672,4.14232 -8.71151,5.57603 -12.85062,8.53049 -1.24731,0.89032 -2.14673,2.18872 -3.26321,3.23844 -2.00525,1.88535 -4.09501,3.67944 -6.10074,5.56428 -1.20758,2.13942 -3.70001,3.00173 -5.1961,4.83433 -0.71004,0.86973 -0.8369,2.16118 -1.64789,2.93763 -0.74389,0.71221 -1.90376,0.80048 -2.79519,1.3162 -2.36768,1.36978 -2.79536,1.95237 -4.6872,3.7209 -2.133,1.75034 -4.50408,4.15612 -5.72293,6.70311 -0.40463,0.84553 -0.29399,1.87505 -0.68299,2.72789 -0.7814,1.71314 -2.12913,3.10627 -3.17785,4.67011 -3.19501,2.77257 -4.54978,6.3089 -6.45202,9.90238 -2.88546,5.45084 -0.15203,-1.08249 -2.27925,4.35296 -0.52042,0.77364 -1.22685,1.45055 -1.56126,2.32091 -0.29982,0.78032 -0.0163,1.70058 -0.28768,2.49124 -0.24416,0.71143 -0.94159,1.19975 -1.219,1.89889 -0.25912,0.65303 -0.14112,1.4089 -0.35859,2.07696 -0.21513,0.66089 -0.61712,1.24554 -0.92569,1.8683 -0.19886,0.66811 -0.39772,1.33622 -0.59659,2.00433 -0.009,0.72709 0.13132,1.47185 -0.0283,2.18127 -0.17067,0.75876 -0.81359,1.36735 -0.94247,2.13431 -0.79725,4.74428 0.93026,0.16321 0.51102,4.37919 -0.47626,4.78947 -1.58352,-0.31611 0.0357,4.728 0.73239,1.57008 -0.13907,3.24216 0.14588,4.8262 0.1671,0.92887 0.86567,1.70294 1.05459,2.62762 0.15729,0.76983 -0.19092,1.58657 -0.0362,2.35692 0.34029,1.6944 1.30521,3.20102 1.91416,4.81841 -0.16603,4.13236 1.71264,7.32029 4.11888,10.47887 0.75378,0.98946 1.78381,1.80659 2.30071,2.93797 0.44501,0.97404 0.328,2.11649 0.49201,3.17473 2.52247,2.35705 2.04832,6.49446 3.76031,9.17932 2.99923,4.7036 4.55722,1.87516 5.84297,9.29498 1.12732,0.83634 2.25465,1.67268 3.38197,2.50902 0.59615,1.14503 -15.59699,9.5758 -16.19313,8.43077 l 0,0 c -0.83992,-1.02951 -1.67983,-2.05902 -2.51974,-3.08854 -0.12303,-0.18841 -4.42006,-6.74861 -4.56518,-7.05159 -0.6085,-1.27036 -0.77058,-2.72094 -1.35463,-4.00273 -1.39542,-3.06249 -3.3414,-5.93333 -4.6427,-9.06579 -1.23416,-3.23342 -3.38459,-6.07836 -4.33385,-9.3996 -0.60421,-2.11401 -0.34804,-4.42343 -1.02157,-6.51637 -0.30969,-0.96233 -0.93274,-1.79386 -1.39911,-2.69079 -0.30475,-4.22471 -1.85308,-4.62682 -2.73341,-8.46187 -0.4554,-1.9839 0.10594,-4.13901 -0.48333,-6.08735 -0.34848,-1.15223 -1.14256,-2.11916 -1.71385,-3.17874 0.0883,-1.00735 0.32464,-2.01262 0.2648,-3.02206 -0.23182,-3.91086 -1.25043,-2.39449 -0.71535,-6.47803 0.22125,-1.6885 1.56691,-3.89817 1.7234,-5.61039 0.0915,-1.00064 -0.20015,-1.99963 -0.30023,-2.99944 5.35063,-6.90634 -0.64195,2.17415 1.18372,-5.70495 0.23245,-1.00321 1.63597,-1.3734 2.0387,-2.32117 0.37626,-0.8855 -0.18756,-1.98879 0.17189,-2.88125 2.36684,-5.87646 1.92229,1.77618 1.78551,-4.81142 0.77296,-0.81772 1.54592,-1.63543 2.31889,-2.45315 0.37925,-0.95494 0.51845,-2.04495 1.13776,-2.86483 0.66208,-0.87651 1.87304,-1.21054 2.57736,-2.05348 1.93466,-2.31541 2.26416,-5.92342 3.80359,-8.46226 2.96842,-8.00999 -1.28492,1.41306 4.34065,-5.0211 0.7407,-0.84715 0.54241,-2.24548 1.2093,-3.15188 0.66396,-0.90242 1.94471,-1.20163 2.64011,-2.08005 0.69187,-0.87396 0.93854,-2.02216 1.40781,-3.03324 0.73319,-0.76562 1.46638,-1.53125 2.19957,-2.29688 0.90017,-0.82826 1.80035,-1.65653 2.70052,-2.4848 0.40785,-0.95462 0.4996,-2.11985 1.22353,-2.86386 0.85419,-0.87788 2.26781,-0.98651 3.24349,-1.72703 0.8901,-0.67558 1.43261,-1.7281 2.27545,-2.46179 2.02276,-1.76077 4.55613,-2.88427 6.35649,-4.93168 7.54931,-8.80613 -1.9671,1.45913 6.92641,-5.58983 1.25541,-0.99503 1.99138,-2.54134 3.22598,-3.56207 1.26933,-1.04946 2.91494,-1.56868 4.21018,-2.58598 9.83512,-7.72467 -2.84145,0.28265 7.9251,-6.12261 8.79908,-4.48802 1.27613,0.21846 8.21457,-6.91023 4.93337,-5.06863 3.51046,-1.99613 9.55178,-6.08108 3.19315,-2.15911 5.37263,-5.6286 8.90903,-7.37232 10.25934,-6.13972 1.37387,-0.26853 10.13642,-7.6282 6.57544,-5.52271 14.5499,-9.31919 19.76964,-16.43315 1.90402,-2.17351 6.69096,-7.59372 8.53605,-9.8733 1.31523,-1.62494 2.33526,-3.50123 3.81569,-4.97724 1.49013,-1.48568 3.60732,-2.26874 5.01801,-3.83006 15.14982,-16.76735 -10.8817,7.35599 7.84459,-9.36346 4.23056,-7.0047 2.33842,-3.36083 5.66047,-10.93988 1.07588,-1.86258 2.71289,-3.35849 3.80619,-5.21089 3.08832,-5.23261 4.45704,-11.39269 7.77602,-16.5206 4.82062,-10.88076 8.35647,-22.39071 8.68332,-34.37665 0.90422,-4.67855 1.674,-7.06711 1.38181,-11.87497 -0.13016,-2.14172 -0.89306,-4.21741 -0.98575,-6.36108 -0.30876,-7.14152 2.65501,-12.82637 -2.64664,-19.02148 -0.69559,-8.16037 -2.0285,-16.77787 -5.18343,-24.41782 -0.83624,-2.02504 -2.1813,-3.80837 -3.07918,-5.80685 -0.92186,-2.05188 -1.57914,-4.21266 -2.36872,-6.31899 -5.71851,-11.1051 -0.51979,-1.566 -7.3809,-12.55842 -4.08647,-6.54708 -3.26872,-6.50617 -8.35035,-12.53676 -1.66288,-1.97341 -3.73126,-3.58945 -5.32811,-5.61666 -1.6112,-2.04542 -2.83722,-4.3668 -4.25583,-6.5502 -6.52143,-8.42611 -13.35051,-17.0339 -21.36493,-24.11952 -2.17698,-1.92469 -4.749,-3.36672 -6.93957,-5.27593 -2.20536,-1.92209 -4.14598,-4.12832 -6.21896,-6.19248 -7.85406,-5.55007 -15.76473,-11.31773 -24.17159,-16.0194 -3.01251,-1.68478 -6.22057,-2.99755 -9.26677,-4.62062 -3.11211,-1.65818 -6.13437,-3.47975 -9.20156,-5.21962 -3.22848,-1.68637 -6.45696,-3.37273 -9.68544,-5.0591 -1.7708,-0.7218 -19.29355,-7.85402 -20.96791,-8.57813 -3.44127,-1.48823 -6.73569,-3.31973 -10.23776,-4.65862 -10.83564,-4.14261 -22.39963,-6.49365 -32.94302,-11.48954 -3.68412,-1.55246 -7.25125,-3.41865 -11.05236,-4.65737 -5.53966,-1.80527 -18.26807,-3.88947 -23.85413,-5.5599 -3.79067,-1.13354 -7.35127,-2.94489 -11.11575,-4.16258 -1.82214,-0.58941 -20.70654,-5.60402 -22.63828,-6.11958 -8.49556,-1.76444 -14.13643,-3.00432 -22.67693,-4.50628 -3.68484,-0.64803 -7.41435,-1.04391 -11.0802,-1.79192 -3.52609,-0.71949 -6.92158,-2.04876 -10.4768,-2.60675 -1.7023,-0.26718 -19.18206,-1.16683 -21.01666,-1.26578 -3.26315,-0.60961 -6.48249,-1.5393 -9.78945,-1.82883 -7.7389,-0.67756 -16.25861,0.38278 -24.02112,0.5189 -2.84248,0.0498 -5.68921,-0.19527 -8.52858,-0.0532 -2.56164,0.12815 -5.09737,0.57493 -7.64605,0.8624 -15.30512,-2.30582 -0.54879,-1.10896 -13.78847,0.4604 -0.17811,0.0211 -11.82319,-0.30061 -12.18798,-0.24572 -1.71871,0.2586 -3.22511,1.33523 -4.9156,1.73905 -1.62791,0.38887 -3.32137,0.41683 -4.98205,0.62525 -3.04106,0.57603 -6.05132,1.33544 -9.11748,1.75801 -5.39762,0.7439 -10.18847,1.09153 -14.780628,4.40904 -1.055365,0.34166 -2.078805,0.80514 -3.166095,1.02496 -1.514828,0.30627 -8.134451,0.64989 -9.332225,1.74246 -0.717241,0.65425 -0.186482,2.19457 -0.990338,2.73889 -0.755229,0.5114 -1.818184,-0.14768 -2.727276,-0.22152 -1.791168,3.24809 -3.371574,1.90501 -4.60684,3.84373 -0.364607,0.57224 -0.108936,1.39736 -0.446365,1.98604 -4.214769,7.35308 1.343559,-5.70015 -2.314311,3.48655 -2.127953,2.2256 -2.242014,2.99864 -3.127942,5.79217 -0.783762,2.47138 -2.455614,3.95138 -1.460905,6.69614 -2.590715,4.19273 0.330272,3.26239 0.06878,6.07812 -0.218112,2.34865 -3.740433,3.62278 -1.417842,6.79492 0.217475,0.5203 1.62802,3.75648 1.671198,4.39389 0.0554,0.81783 -0.588038,1.61651 -0.431083,2.42106 0.43643,2.23713 3.535922,4.27386 3.213014,6.88166 0.794655,2.00019 1.939234,3.85545 2.659827,5.8835 0.380136,1.06986 0.279733,2.28481 0.73035,3.32695 1.631792,3.77384 5.293703,6.64204 5.558745,11.09253 0.381412,0.43619 5.964802,6.79338 6.244894,7.2281 0.911373,1.41451 1.361976,3.08164 2.16667,4.55945 2.486094,4.56567 6.117697,8.00335 9.285408,12.06937 0.968084,1.2268 2.035834,2.38116 2.904264,3.68042 0.95058,1.42216 1.32427,3.25452 2.53726,4.46067 1.33947,1.33192 3.46448,1.63721 4.86736,2.90218 1.4152,1.27607 2.18061,3.13411 3.4263,4.57614 2.50114,2.89536 5.67475,5.16857 7.92387,8.30431 2.76229,2.69647 5.11745,5.82111 8.07931,8.2967 1.58636,1.3259 3.73785,1.919 5.20044,3.38029 1.33067,1.32948 1.74036,3.37713 2.97946,4.79234 2.65954,3.03756 6.68482,4.68584 8.99327,8.11299 1.619,1.99515 5.51469,6.92457 7.39057,8.72803 1.49495,1.43722 7.54633,5.84962 8.79194,7.63421 1.04226,1.49326 1.03124,3.54714 2.02177,5.07521 1.00667,1.55299 2.57128,2.66255 3.85693,3.99382 12.18761,9.66813 -2.61308,-2.68494 7.24114,7.37493 1.11335,1.13658 2.64058,1.80138 3.78981,2.90168 2.51801,2.4108 3.60613,5.80538 6.26171,8.06719 0.67,0.98941 -13.32236,10.46477 -13.99237,9.47536 z"
       inkscape:connector-curvature="0" />
    <path
       style="fill:#000000;fill-opacity:1"
       id="path2996"
       d="m 389.87594,832.52251 c 4.57411,-0.49992 9.26346,0.0255 13.88316,0.0305 1.40066,0.002 2.8331,-0.3678 4.20143,-0.0686 2.48791,0.54404 4.59164,2.20672 6.92319,3.2312 8.45734,0.28109 11.98537,7.70148 16.55688,13.65115 0.45666,1.06496 1.13342,2.06055 1.36997,3.19489 0.46506,2.23 -0.0276,4.55822 0.0853,6.83338 0.15539,3.12869 0.50489,6.1805 0.49696,9.31932 -0.93897,0.84131 -2.37875,1.34178 -2.81692,2.52393 -0.35848,0.96715 0.80922,1.96613 0.77059,2.99686 -0.15482,4.13088 -5.56256,6.90021 -8.45442,8.97257 -0.66957,0.80821 -1.11328,1.87716 -2.00871,2.42464 -0.9278,0.56727 -2.14221,0.40833 -3.17611,0.74544 -0.94797,0.30909 -1.76379,1.01553 -2.74627,1.18558 -1.12656,0.19499 -2.29254,-0.25119 -3.42795,-0.11693 -0.95053,0.11239 -1.8292,0.56448 -2.7438,0.84672 -2.50031,0.008 -5.00062,0.0156 -7.50092,0.0234 -3.44438,-0.96397 -6.49171,-2.79718 -9.69292,-4.29134 -0.99784,-0.46575 -2.17093,-0.57715 -3.07637,-1.20386 -9.1159,-6.30968 5.45016,1.2221 -5.62836,-4.11092 -0.58942,-1.03485 -1.17884,-2.0697 -1.76826,-3.10455 -0.37143,-1.12388 -0.53408,-2.33993 -1.11428,-3.37164 -0.57629,-1.02475 -1.75559,-1.63523 -2.29028,-2.68229 -0.5149,-1.00833 -0.42285,-2.23039 -0.7689,-3.3084 -1.68104,-5.23676 -1.31066,-0.80058 -1.22456,-6.36173 -0.48206,-0.99233 -1.24603,-1.89209 -1.44619,-2.97701 -0.39173,-2.12322 0.43702,-4.3068 0.39069,-6.46535 -0.0243,-1.13387 -0.40787,-2.27607 -0.22319,-3.39507 0.38437,-2.32888 1.69636,-4.40737 2.43844,-6.64807 2.66153,-0.86859 1.74812,-4.54471 3.62006,-5.8877 1.04935,-0.75284 2.61952,-0.14152 3.82825,-0.59634 0.9448,-0.35551 1.48612,-1.49609 2.45797,-1.76905 1.09692,-0.30808 2.2798,0.20412 3.41599,0.11925 2.42966,-0.18148 4.83443,-0.61072 7.25164,-0.91607 0.76392,0.69238 3.41896,3.3671 4.73659,3.65133 1.15362,0.24887 2.38974,-0.43356 3.53701,-0.15686 1.32763,0.3202 5.32331,3.59914 6.6893,4.50902 0.89231,0.75765 -9.82246,13.37681 -10.71477,12.61917 l 0,0 c -0.59288,-0.38815 -1.18577,-0.77629 -1.77865,-1.16443 -0.59199,-0.13241 -1.24962,-0.0957 -1.77596,-0.39723 -0.59132,-0.33879 -0.89839,-1.03893 -1.44383,-1.44751 -1.65743,-1.24152 -2.88832,-0.0926 -4.69931,-0.13291 5.61599,-0.81629 2.87005,-0.40324 1.26273,-1.30908 -0.49253,-0.27757 -0.83219,-0.81679 -1.36441,-1.00751 -0.15412,-0.0552 -0.14362,0.29424 -0.21542,0.44136 2.31122,2.33112 -0.84156,2.53034 -0.65529,5.26856 0.44213,6.49964 2.22009,-1.85124 0.35537,4.79646 0.56673,1.87941 2.50395,4.43484 2.65612,5.57197 0.0954,0.71301 -0.53519,1.47402 -0.267,2.14153 0.46693,1.16216 2.62649,0.98644 2.86314,2.43316 0.57165,0.33518 1.09861,0.7621 1.71494,1.00554 0.72254,0.28539 1.6493,0.0861 2.26107,0.56492 0.64759,0.50682 0.52255,1.69738 1.2087,2.15063 0.58209,0.38451 1.42375,-0.16793 2.09266,0.0301 1.01654,0.30103 1.53449,1.70614 2.83169,1.44821 -7.25404,-1.99109 1.65764,0.23692 2.55826,0.11043 0.84971,-0.11933 1.00667,-1.72691 2.1406,-1.42972 4.20504,0.36432 3.23274,-2.06004 3.98002,-5.20489 0.68339,-0.46306 1.73686,-0.62546 2.05018,-1.38919 0.20983,-0.51146 -0.8737,-0.83375 -0.91195,-1.38525 -0.0448,-0.64601 0.77695,-1.17438 0.68988,-1.81607 -0.0665,-0.48984 -2.74032,-3.75122 -2.13765,-4.82376 0.13292,-0.65934 0.60942,-1.33927 0.39875,-1.97803 -0.4655,-1.41146 -7.11466,-3.43004 -8.18573,-4.71644 -11.38382,0.73198 3.62831,0.14934 -5.47629,-0.53999 -0.96375,-0.073 -1.98123,0.70645 -2.87864,0.34755 -0.59601,-0.23837 2.26464,-0.41062 1.75269,-0.79786 -1.33847,-1.01244 -3.69635,1.62365 -5.03469,0.0208 -1.1482,0.41169 -6.97045,-15.82623 -5.82226,-16.23793 z"
       inkscape:connector-curvature="0" />
  </g>
</svg>
